# Blender 4.0.2
# www.blender.org
mtllib shower.mtl
o Prop_ShowerWall
v 4.785793 2.879397 -0.834677
v 4.785793 2.908834 -2.472273
v 4.785793 2.908834 -0.834677
v 4.815230 2.879397 -0.834677
v 4.815230 2.908834 -2.472273
v 4.815230 2.908834 -0.834677
v 4.785793 0.073034 -2.442955
v 4.785793 2.879794 -2.442955
v 4.785793 0.073034 -2.472392
v 4.815230 0.073034 -2.442955
v 4.815230 2.879794 -2.442955
v 4.815230 0.073034 -2.472392
v 4.800512 2.895385 -0.832824
v 4.800512 0.075630 -0.832824
v 4.800512 2.895385 -2.456209
v 4.800512 0.075630 -2.456209
vn -0.0000 1.0000 -0.0000
vn 1.0000 -0.0000 -0.0000
vn -0.0000 -0.0000 -1.0000
vn -0.0000 -1.0000 -0.0002
vn -1.0000 -0.0000 -0.0000
vn -0.0000 -0.0000 1.0000
vn -0.0000 -1.0000 -0.0000
vt 0.375000 0.250000
vt 0.625000 0.250000
vt 0.625000 0.500000
vt 0.375000 0.500000
vt 0.625000 0.750000
vt 0.375000 0.750000
vt 0.000000 0.000000
vt 0.625000 1.000000
vt 0.375000 1.000000
vt 0.125000 0.500000
vt 0.125000 0.750000
vt 1.000000 0.000000
vt 1.000000 1.000000
vt 0.000000 1.000000
s 0
f 2/1/1 3/2/1 6/3/1 5/4/1
f 5/4/2 6/3/2 4/5/2
f 2/1/3 5/4/3 12/4/3 9/1/3
f 5/4/2 11/5/2 10/6/2 12/4/2
f 4/7/4 1/7/4 8/8/4 11/5/4
f 2/1/5 8/8/5 1/7/5 3/2/5
f 10/6/6 11/5/6 8/8/6 7/9/6
f 9/10/7 12/4/7 10/6/7 7/11/7
f 2/1/5 9/10/5 7/9/5 8/8/5
f 13/7/2 14/12/2 16/13/2 15/14/2
o Prop_Shower
v 5.329338 1.435241 -0.846168
v 5.329338 1.435241 -0.900305
v 5.332911 1.424245 -0.846168
v 5.332911 1.424245 -0.900305
v 5.342265 1.417449 -0.846168
v 5.342265 1.417449 -0.900305
v 5.353826 1.417449 -0.846168
v 5.353826 1.417449 -0.900305
v 5.363180 1.424245 -0.846168
v 5.363180 1.424245 -0.900305
v 5.366753 1.435241 -0.846168
v 5.366753 1.435241 -0.900305
v 5.363180 1.446237 -0.846168
v 5.363180 1.446237 -0.900305
v 5.353826 1.453033 -0.846168
v 5.353826 1.453033 -0.900305
v 5.342265 1.453033 -0.846168
v 5.342265 1.453033 -0.900305
v 5.332911 1.446237 -0.846168
v 5.332911 1.446237 -0.900305
v 5.276018 1.435241 -0.946142
v 5.809047 1.435241 -0.946142
v 5.276018 1.435241 -0.996504
v 5.276018 1.405639 -0.986885
v 5.276018 1.387344 -0.961704
v 5.276018 1.387344 -0.930579
v 5.276018 1.405639 -0.905398
v 5.276018 1.435241 -0.895779
v 5.276018 1.464843 -0.905398
v 5.276018 1.483138 -0.930579
v 5.276018 1.483138 -0.961704
v 5.276018 1.464843 -0.986885
v 5.809047 1.405639 -0.986885
v 5.809047 1.435241 -0.996504
v 5.809047 1.387344 -0.961704
v 5.809047 1.387344 -0.930579
v 5.809047 1.405639 -0.905398
v 5.809047 1.435241 -0.895779
v 5.809047 1.464843 -0.905398
v 5.809047 1.483138 -0.930579
v 5.809047 1.483138 -0.961704
v 5.809047 1.464843 -0.986885
v 5.470204 2.724733 -0.866881
v 5.473358 2.724868 -0.873415
v 5.479526 2.724952 -0.877480
v 5.486247 2.724960 -0.877912
v 5.492783 2.724895 -0.874758
v 5.496848 2.724768 -0.868592
v 5.497280 2.724629 -0.861872
v 5.494125 2.724494 -0.855337
v 5.487958 2.724411 -0.851273
v 5.481236 2.724402 -0.850841
v 5.474701 2.724467 -0.853995
v 5.470635 2.724594 -0.860161
v 5.470318 2.548215 -0.875545
v 5.473472 2.548700 -0.882063
v 5.479639 2.549007 -0.886117
v 5.486361 2.549047 -0.886547
v 5.492897 2.548822 -0.883401
v 5.496962 2.548372 -0.877250
v 5.497394 2.547877 -0.870547
v 5.494240 2.547391 -0.864029
v 5.488072 2.547084 -0.859975
v 5.481351 2.547045 -0.859545
v 5.474815 2.547270 -0.862692
v 5.470749 2.547719 -0.868842
v 5.470823 2.307091 -0.901965
v 5.473977 2.307940 -0.908441
v 5.480144 2.308478 -0.912468
v 5.486865 2.308549 -0.912895
v 5.493401 2.308157 -0.909768
v 5.497468 2.307371 -0.903655
v 5.497900 2.306505 -0.896995
v 5.494746 2.305655 -0.890518
v 5.488580 2.305117 -0.886491
v 5.481858 2.305047 -0.886064
v 5.475322 2.305439 -0.889191
v 5.471256 2.306225 -0.895304
v 5.471530 2.036741 -0.944863
v 5.474683 2.037922 -0.951292
v 5.480850 2.038669 -0.955290
v 5.487571 2.038766 -0.955713
v 5.494107 2.038220 -0.952608
v 5.498175 2.037127 -0.946539
v 5.498608 2.035923 -0.939926
v 5.495455 2.034742 -0.933497
v 5.489289 2.033996 -0.929499
v 5.482568 2.033898 -0.929077
v 5.476031 2.034444 -0.932182
v 5.471964 2.035537 -0.938250
v 5.472723 1.371613 -1.078020
v 5.475875 1.372561 -1.084488
v 5.482040 1.373138 -1.088515
v 5.488762 1.373181 -1.088947
v 5.495299 1.372698 -1.085832
v 5.499367 1.371781 -1.079735
v 5.499801 1.370793 -1.073087
v 5.496649 1.369845 -1.066619
v 5.490483 1.369268 -1.062592
v 5.483762 1.369226 -1.062160
v 5.477225 1.369709 -1.065274
v 5.473157 1.370626 -1.071371
v 5.472276 1.285665 -1.088270
v 5.475424 1.286016 -1.094800
v 5.481588 1.286198 -1.098867
v 5.488308 1.286164 -1.099308
v 5.494847 1.285923 -1.096168
v 5.498918 1.285529 -1.090017
v 5.499356 1.285135 -1.083308
v 5.496208 1.284783 -1.076778
v 5.490044 1.284601 -1.072711
v 5.483324 1.284635 -1.072270
v 5.476785 1.284876 -1.075410
v 5.472714 1.285270 -1.081561
v 5.471452 1.220198 -1.088091
v 5.474580 1.219176 -1.094559
v 5.480729 1.218452 -1.098587
v 5.487448 1.218248 -1.099020
v 5.493994 1.218571 -1.095905
v 5.498084 1.219387 -1.089808
v 5.498542 1.220360 -1.083159
v 5.495414 1.221382 -1.076691
v 5.489264 1.222106 -1.072663
v 5.482546 1.222311 -1.072230
v 5.475999 1.221987 -1.075345
v 5.471910 1.221171 -1.081442
v 5.470181 1.177059 -1.075144
v 5.473267 1.173949 -1.080930
v 5.479390 1.171932 -1.084534
v 5.486106 1.171598 -1.084925
v 5.492673 1.172940 -1.082144
v 5.496802 1.175736 -1.076694
v 5.497303 1.178861 -1.070748
v 5.494217 1.181971 -1.064963
v 5.488093 1.183988 -1.061358
v 5.481378 1.184322 -1.060967
v 5.474811 1.182980 -1.063749
v 5.470682 1.180184 -1.069199
v 5.470074 1.152102 -1.055026
v 5.473197 1.147328 -1.059512
v 5.479340 1.144492 -1.062477
v 5.486051 1.144383 -1.063043
v 5.492590 1.146942 -1.061212
v 5.496675 1.151669 -1.057271
v 5.497133 1.156695 -1.052810
v 5.494009 1.161468 -1.048325
v 5.487867 1.164304 -1.045360
v 5.481156 1.164413 -1.044793
v 5.474617 1.161854 -1.046624
v 5.470532 1.157127 -1.050565
v 5.472695 1.139365 -1.034747
v 5.476095 1.133470 -1.037269
v 5.482338 1.130225 -1.039517
v 5.488957 1.130489 -1.040737
v 5.495227 1.134142 -1.040823
v 5.498932 1.140411 -1.039581
v 5.499044 1.146842 -1.037582
v 5.495644 1.152736 -1.035060
v 5.489401 1.155981 -1.032812
v 5.482782 1.155717 -1.031592
v 5.476512 1.152064 -1.031507
v 5.472807 1.145796 -1.032748
v 5.477769 1.138662 -1.014955
v 5.481858 1.132669 -1.014774
v 5.488359 1.129387 -1.016010
v 5.494759 1.129682 -1.018088
v 5.500369 1.133429 -1.020762
v 5.503139 1.139831 -1.023194
v 5.502393 1.146384 -1.024560
v 5.498304 1.152377 -1.024742
v 5.491803 1.155659 -1.023505
v 5.485403 1.155364 -1.021427
v 5.479792 1.151617 -1.018753
v 5.477023 1.145215 -1.016322
v 5.484329 1.148439 -0.997604
v 5.489131 1.143434 -0.995469
v 5.495907 1.140533 -0.995951
v 5.502094 1.140533 -0.998614
v 5.507038 1.143357 -1.003113
v 5.508854 1.148437 -1.008159
v 5.507228 1.153771 -1.011936
v 5.502427 1.158777 -1.014071
v 5.495651 1.161677 -1.013589
v 5.489464 1.161678 -1.010926
v 5.484519 1.158853 -1.006427
v 5.482704 1.153773 -1.001381
v 5.491557 1.165796 -0.983061
v 5.496798 1.161809 -0.980011
v 5.503752 1.159321 -0.980122
v 5.509821 1.159046 -0.983031
v 5.514371 1.160957 -0.988352
v 5.515613 1.164706 -0.994594
v 5.513453 1.168800 -0.999487
v 5.508212 1.172787 -1.002537
v 5.501257 1.175275 -1.002426
v 5.495189 1.175549 -0.999517
v 5.490639 1.173639 -0.994196
v 5.489397 1.169889 -0.987954
v 5.506647 1.216049 -0.960215
v 5.512290 1.213362 -0.956528
v 5.519428 1.211469 -0.956350
v 5.525419 1.210949 -0.959383
v 5.529647 1.211824 -0.965217
v 5.530396 1.213991 -0.972238
v 5.527764 1.216562 -0.977880
v 5.522120 1.219250 -0.981566
v 5.514983 1.221143 -0.981745
v 5.508991 1.221662 -0.978712
v 5.504764 1.220788 -0.972878
v 5.504014 1.218621 -0.965856
v 5.520055 1.277327 -0.944704
v 5.525894 1.275531 -0.940786
v 5.533145 1.274161 -0.940474
v 5.539138 1.273651 -0.943507
v 5.543257 1.274034 -0.949469
v 5.543809 1.275306 -0.956725
v 5.540968 1.276932 -0.962611
v 5.535130 1.278728 -0.966529
v 5.527878 1.280097 -0.966841
v 5.521885 1.280607 -0.963809
v 5.517766 1.280225 -0.957846
v 5.517214 1.278953 -0.950591
v 5.528296 1.337511 -0.936732
v 5.534270 1.336767 -0.932681
v 5.541622 1.336178 -0.932270
v 5.547647 1.335933 -0.935271
v 5.551729 1.336049 -0.941270
v 5.552179 1.336538 -0.948626
v 5.549212 1.337192 -0.954638
v 5.543238 1.337936 -0.958689
v 5.535886 1.338525 -0.959100
v 5.529860 1.338770 -0.956099
v 5.525778 1.338654 -0.950100
v 5.525329 1.338165 -0.942744
v 5.529362 1.363282 -0.935717
v 5.535364 1.363325 -0.931637
v 5.542738 1.363377 -0.931204
v 5.548773 1.363420 -0.934194
v 5.552853 1.363449 -0.940196
v 5.553286 1.363452 -0.947570
v 5.550295 1.363431 -0.953606
v 5.544293 1.363388 -0.957685
v 5.536920 1.363336 -0.958118
v 5.530885 1.363293 -0.955128
v 5.526805 1.363264 -0.949126
v 5.526372 1.363261 -0.941752
v 5.484569 2.696366 -0.863747
v 5.484569 2.905128 -0.882571
v 5.462080 2.905128 -0.878976
v 5.448180 2.905128 -0.869564
v 5.448180 2.905128 -0.857931
v 5.462080 2.905128 -0.848519
v 5.484569 2.905128 -0.844924
v 5.507057 2.905128 -0.848519
v 5.520957 2.905128 -0.857931
v 5.520957 2.905128 -0.869564
v 5.507057 2.905128 -0.878976
v 5.469058 2.696366 -0.878976
v 5.484569 2.696366 -0.882571
v 5.459472 2.696366 -0.869564
v 5.459472 2.696366 -0.857931
v 5.469058 2.696366 -0.848519
v 5.484569 2.696366 -0.844924
v 5.500079 2.696366 -0.848519
v 5.509665 2.696366 -0.857931
v 5.509665 2.696366 -0.869564
v 5.500079 2.696366 -0.878976
v 5.484590 2.949014 -0.842436
v 5.433422 2.913928 -0.888763
v 5.421343 2.949014 -0.888763
v 5.465045 2.892245 -0.888763
v 5.504134 2.892245 -0.888763
v 5.535757 2.913928 -0.888763
v 5.547836 2.949014 -0.888763
v 5.535757 2.984099 -0.888763
v 5.504134 3.005783 -0.888763
v 5.465045 3.005783 -0.888763
v 5.433422 2.984099 -0.888763
v 5.405079 2.949014 -0.842436
v 5.420264 2.904906 -0.842436
v 5.460019 2.877646 -0.842436
v 5.509160 2.877646 -0.842436
v 5.548914 2.904906 -0.842436
v 5.564100 2.949014 -0.842436
v 5.548914 2.993121 -0.842436
v 5.509160 3.020381 -0.842436
v 5.460019 3.020381 -0.842436
v 5.420264 2.993121 -0.842436
v 5.420264 2.904906 -0.888763
v 5.405079 2.949014 -0.888763
v 5.460020 2.877646 -0.888763
v 5.509160 2.877646 -0.888763
v 5.548914 2.904906 -0.888763
v 5.564100 2.949014 -0.888763
v 5.548914 2.993121 -0.888763
v 5.509160 3.020381 -0.888763
v 5.460019 3.020381 -0.888763
v 5.420264 2.993121 -0.888763
v 5.484590 2.949014 -0.892432
v 5.433422 2.913928 -0.892432
v 5.421343 2.949014 -0.892432
v 5.465045 2.892245 -0.892432
v 5.504134 2.892245 -0.892432
v 5.535757 2.913928 -0.892432
v 5.547836 2.949014 -0.892432
v 5.535757 2.984099 -0.892432
v 5.504134 3.005783 -0.892432
v 5.465045 3.005783 -0.892432
v 5.433422 2.984099 -0.892432
v 5.459933 2.623310 -0.836352
v 5.459933 2.670902 -0.836352
v 5.465290 2.623310 -0.880134
v 5.465290 2.670902 -0.880134
v 5.507525 2.623310 -0.836352
v 5.507525 2.670902 -0.836352
v 5.502168 2.623310 -0.880134
v 5.502168 2.670902 -0.880134
v 5.494199 2.623310 -0.880134
v 5.473259 2.623310 -0.880134
v 5.473259 2.670902 -0.880134
v 5.494199 2.670902 -0.880134
v 5.469791 2.623310 -0.836352
v 5.497667 2.623310 -0.836352
v 5.497667 2.670902 -0.836352
v 5.469791 2.670902 -0.836352
v 5.459933 2.623310 -0.857085
v 5.459933 2.670902 -0.857085
v 5.507525 2.623310 -0.857085
v 5.507525 2.670902 -0.857085
v 5.494400 2.670902 -0.855293
v 5.473059 2.670902 -0.855293
v 5.473059 2.623310 -0.851481
v 5.494399 2.623310 -0.855293
v 5.483729 2.623310 -0.836352
v 5.483729 2.670902 -0.836352
v 5.483729 2.623310 -0.853058
v 5.483729 2.670902 -0.853058
v 5.507517 2.623310 -0.869948
v 5.507517 2.670902 -0.869948
v 5.497683 2.670902 -0.869948
v 5.497683 2.623310 -0.869948
v 5.459941 2.670902 -0.869949
v 5.459941 2.623310 -0.869949
v 5.469775 2.670902 -0.869948
v 5.469775 2.623310 -0.868043
v 5.671659 1.435241 -0.824427
v 5.737664 1.435241 -0.848308
v 5.684265 1.396444 -0.824427
v 5.717267 1.372466 -0.824427
v 5.758060 1.372466 -0.824427
v 5.791063 1.396444 -0.824427
v 5.803668 1.435241 -0.824427
v 5.791063 1.474038 -0.824427
v 5.758060 1.498015 -0.824427
v 5.717267 1.498015 -0.824427
v 5.684265 1.474038 -0.824427
v 5.684265 1.396444 -0.848308
v 5.671659 1.435241 -0.848308
v 5.717267 1.372466 -0.848308
v 5.758060 1.372466 -0.848308
v 5.791063 1.396444 -0.848308
v 5.803668 1.435241 -0.848308
v 5.791063 1.474038 -0.848308
v 5.758060 1.498015 -0.848308
v 5.717267 1.498015 -0.848308
v 5.684265 1.474038 -0.848308
v 5.718956 1.435241 -0.846168
v 5.718956 1.435241 -0.900305
v 5.722529 1.424245 -0.846168
v 5.722529 1.424245 -0.900305
v 5.731883 1.417449 -0.846168
v 5.731883 1.417449 -0.900305
v 5.743444 1.417449 -0.846168
v 5.743444 1.417449 -0.900305
v 5.752799 1.424245 -0.846168
v 5.752799 1.424245 -0.900305
v 5.756371 1.435241 -0.846168
v 5.756371 1.435241 -0.900305
v 5.752799 1.446237 -0.846168
v 5.752799 1.446237 -0.900305
v 5.743444 1.453033 -0.846168
v 5.743444 1.453033 -0.900305
v 5.731883 1.453033 -0.846168
v 5.731883 1.453033 -0.900305
v 5.722529 1.446237 -0.846168
v 5.722529 1.446237 -0.900305
v 5.282041 1.435241 -0.824427
v 5.348045 1.435241 -0.848308
v 5.294646 1.396444 -0.824427
v 5.327649 1.372466 -0.824427
v 5.368442 1.372466 -0.824427
v 5.401444 1.396444 -0.824427
v 5.414050 1.435241 -0.824427
v 5.401444 1.474038 -0.824427
v 5.368442 1.498015 -0.824427
v 5.327649 1.498015 -0.824427
v 5.294646 1.474038 -0.824427
v 5.294646 1.396444 -0.848308
v 5.282041 1.435241 -0.848307
v 5.327649 1.372466 -0.848308
v 5.368442 1.372466 -0.848308
v 5.401444 1.396444 -0.848308
v 5.414050 1.435241 -0.848308
v 5.401444 1.474038 -0.848308
v 5.368442 1.498015 -0.848308
v 5.327649 1.498015 -0.848308
v 5.294646 1.474038 -0.848308
v 5.508111 1.354053 -0.946868
v 5.508111 1.397784 -0.946868
v 5.513686 1.354053 -0.964027
v 5.513686 1.397784 -0.964027
v 5.528283 1.354053 -0.974632
v 5.528283 1.397784 -0.974632
v 5.546325 1.354053 -0.974632
v 5.546325 1.397784 -0.974632
v 5.560921 1.354053 -0.964027
v 5.560921 1.397784 -0.964027
v 5.566496 1.354053 -0.946868
v 5.566496 1.397784 -0.946868
v 5.560921 1.354053 -0.929709
v 5.560921 1.397784 -0.929709
v 5.546325 1.354053 -0.919105
v 5.546325 1.397784 -0.919105
v 5.528283 1.354053 -0.919105
v 5.528283 1.397784 -0.919105
v 5.513686 1.354053 -0.929709
v 5.513686 1.397784 -0.929709
vn -0.9511 -0.3090 -0.0000
vn -0.5878 -0.8090 -0.0000
vn -0.0000 -1.0000 -0.0000
vn 0.5878 -0.8090 -0.0000
vn 0.9511 -0.3090 -0.0000
vn 0.9511 0.3090 -0.0000
vn 0.5878 0.8090 -0.0000
vn -0.0000 1.0000 -0.0000
vn -0.5878 0.8090 -0.0000
vn -0.9511 0.3090 -0.0000
vn -0.0000 -0.3090 -0.9511
vn -0.0000 -0.8090 -0.5878
vn -0.0000 -0.8090 0.5878
vn -0.0000 -0.3090 0.9511
vn -0.0000 0.3090 0.9511
vn -0.0000 0.8090 0.5878
vn -0.0000 0.8090 -0.5878
vn -0.0000 0.3090 -0.9511
vn -1.0000 -0.0000 -0.0000
vn 1.0000 -0.0000 -0.0000
vn -0.0641 0.0489 -0.9967
vn 0.4346 0.0444 -0.8995
vn 0.8348 0.0275 -0.5498
vn -0.8958 0.0197 0.4440
vn 0.9005 -0.0207 0.4343
vn 0.5502 -0.0406 0.8340
vn -0.9973 0.0439 -0.0583
vn -0.4346 -0.0444 0.8995
vn -0.8348 -0.0275 0.5498
vn -0.9979 -0.0038 0.0640
vn -0.1227 -0.3807 0.9165
vn -0.0641 0.1085 -0.9920
vn 0.8271 -0.1840 -0.5311
vn 0.4343 0.0990 -0.8953
vn 0.8347 0.0617 -0.5473
vn 0.9979 0.0091 -0.0636
vn 0.9005 -0.0455 0.4325
vn 0.0641 -0.1086 0.9920
vn 0.4435 -0.0532 0.8947
vn -0.8347 -0.0617 0.5473
vn -0.5946 -0.1782 0.7840
vn -0.9005 0.0455 -0.4325
vn 0.5502 -0.0898 0.8302
vn -0.9006 0.0658 -0.4297
vn 0.8259 -0.3559 -0.4373
vn -0.4344 -0.0990 0.8953
vn -0.8346 -0.0884 0.5437
vn -0.5504 0.1629 -0.8189
vn -0.0642 0.1563 -0.9856
vn 0.4343 0.1423 -0.8895
vn 0.8346 0.0885 -0.5437
vn 0.9979 0.0126 -0.0631
vn 0.9006 -0.0658 0.4297
vn 0.1218 0.3776 -0.9179
vn -0.8259 0.0567 -0.5610
vn 0.0642 -0.1562 0.9856
vn -0.4343 -0.1422 0.8895
vn -0.4435 0.0539 -0.8947
vn -0.9979 -0.0126 0.0631
vn -0.0643 0.1958 -0.9785
vn 0.8345 0.1096 -0.5399
vn -0.7113 -0.4637 0.5283
vn 0.9006 -0.0838 0.4265
vn -0.2941 -0.7838 0.5470
vn 0.5504 -0.1630 0.8189
vn -0.9016 -0.2694 -0.3384
vn 0.8958 -0.0195 -0.4440
vn -0.4342 -0.1776 0.8831
vn -0.8345 -0.1096 0.5399
vn 0.4185 -0.5700 -0.7071
vn -0.8142 0.1846 -0.5505
vn 0.4342 0.1776 -0.8832
vn 0.9974 -0.0432 0.0583
vn 0.5722 0.0812 -0.8161
vn -0.1908 0.8712 -0.4523
vn 0.4328 -0.1761 0.8841
vn -0.9979 -0.0144 0.0629
vn 0.5620 0.0093 -0.8271
vn 0.9977 -0.0127 -0.0664
vn -0.9885 0.1422 -0.0507
vn 0.0585 0.0370 -0.9976
vn 0.8315 -0.4151 -0.3691
vn -0.7546 0.4441 -0.4830
vn 0.9979 0.0144 -0.0629
vn 0.5539 0.5212 0.6492
vn 0.8259 -0.0558 0.5610
vn -0.7921 0.3067 -0.5277
vn 0.9006 0.0992 0.4232
vn 0.8921 -0.0628 -0.4475
vn -0.9003 0.0100 -0.4352
vn -0.5504 0.1016 -0.8287
vn 0.3637 -0.4746 0.8015
vn -0.0654 -0.1221 0.9904
vn 0.4339 0.1043 -0.8949
vn -0.8922 0.0648 0.4470
vn 0.8133 0.5498 -0.1901
vn 0.9979 0.0026 -0.0649
vn 0.9006 -0.0561 0.4310
vn 0.4086 -0.3071 0.8595
vn -0.4955 0.8542 0.1575
vn 0.8888 -0.0803 -0.4512
vn -0.4339 -0.1047 0.8949
vn -0.8343 -0.0611 0.5479
vn 0.5637 0.0321 -0.8254
vn -0.9006 -0.1008 -0.4227
vn -0.5492 0.0037 -0.8357
vn -0.0701 -0.2866 -0.9555
vn 0.4313 -0.0091 -0.9022
vn 0.8323 -0.0125 -0.5541
vn 0.9979 0.0038 -0.0640
vn 0.9002 -0.0105 0.4353
vn 0.5492 -0.0060 0.8357
vn 0.0649 -0.0001 0.9979
vn -0.4313 0.0061 0.9022
vn -0.8323 0.0112 0.5541
vn -0.0585 -0.0367 0.9976
vn -0.5503 -0.2266 -0.8036
vn -0.5502 0.0898 -0.8302
vn 0.0654 0.1222 -0.9903
vn -0.5620 -0.0093 0.8271
vn 0.4231 -0.2730 -0.8640
vn -0.4327 0.1765 -0.8841
vn 0.9970 -0.0476 -0.0605
vn -0.2923 0.6762 -0.6762
vn -0.9979 -0.0026 0.0649
vn 0.0700 0.2816 0.9570
vn -0.9063 0.0242 0.4220
vn -0.8271 0.1833 0.5313
vn -0.9970 0.0477 0.0604
vn -0.8853 -0.4372 -0.1586
vn -0.0760 -0.6247 -0.7772
vn -0.9005 0.0207 -0.4343
vn 0.9974 -0.0494 -0.0532
vn 0.9016 0.2674 0.3399
vn 0.6963 -0.6092 0.3795
vn 0.0759 0.6283 0.7743
vn -0.4185 0.5748 0.7031
vn -0.8259 0.3586 0.4351
vn -0.9974 0.0487 0.0538
vn -0.8136 -0.5498 0.1890
vn 0.9886 -0.1418 0.0507
vn -0.0600 -0.8511 -0.5216
vn -0.9006 0.0561 -0.4310
vn 0.4293 -0.7397 -0.5182
vn 0.9932 0.0158 -0.1156
vn 0.5502 0.2223 0.8049
vn 0.5361 0.7331 0.4186
vn 0.0633 0.8361 0.5449
vn -0.4273 0.7319 0.5309
vn -0.8312 0.4141 0.3708
vn -0.5503 0.1295 -0.8249
vn 0.0644 -0.1188 0.9908
vn -0.4370 -0.8959 0.0800
vn 0.0318 -0.9985 -0.0437
vn 0.4955 -0.8542 -0.1574
vn 0.8562 -0.4597 -0.2359
vn 0.9674 0.0592 -0.2464
vn -0.0649 -0.0034 -0.9979
vn 0.4366 0.8960 -0.0815
vn -0.0320 0.9986 0.0429
vn -0.5335 -0.7476 -0.3956
vn -0.8561 0.4597 0.2361
vn -0.9674 -0.0592 0.2461
vn 0.1809 -0.8868 0.4253
vn 0.8998 -0.4246 -0.1002
vn 0.9290 0.0256 -0.3692
vn 0.7058 0.4565 -0.5416
vn 0.2836 0.7686 -0.5734
vn -0.6165 0.7581 -0.2127
vn -0.9005 0.4236 0.0983
vn -0.9297 -0.0264 0.3674
vn -0.1947 -0.5829 0.7889
vn 0.2890 -0.6844 0.6694
vn 0.9317 -0.3619 -0.0308
vn 0.9060 -0.0247 -0.4225
vn -0.8888 0.0803 0.4512
vn 0.1913 0.5750 -0.7955
vn -0.6981 0.6048 -0.3834
vn -0.9320 0.3613 0.0302
vn 0.0643 -0.1958 0.9785
vn 0.7541 -0.4460 0.4821
vn 0.9561 -0.2928 0.0129
vn 0.8922 -0.0650 -0.4470
vn 0.5941 0.1767 -0.7847
vn 0.6417 0.3129 -0.7002
vn -0.3647 0.4713 -0.8030
vn -0.9562 0.2925 -0.0131
vn -0.9977 0.0127 0.0664
vn -0.0846 -0.2272 0.9702
vn 0.6115 -0.7660 0.1981
vn -0.0645 0.1183 -0.9909
vn -0.5539 -0.5210 -0.6494
vn 0.7921 -0.3069 0.5277
vn 0.9744 -0.2221 0.0354
vn -0.5637 -0.0321 0.8254
vn 0.0845 0.2268 -0.9703
vn -0.4087 0.3067 -0.8596
vn 0.8142 -0.1840 0.5506
vn -0.9744 0.2221 -0.0354
vn -0.9006 0.0838 -0.4265
vn -0.5722 -0.0814 0.8160
vn -0.6435 -0.3168 0.6968
vn 0.0641 -0.0489 0.9967
vn 0.5503 -0.1294 0.8249
vn -0.5503 0.0406 -0.8340
vn 0.8865 0.4302 0.1703
vn 0.5503 -0.1019 0.8287
vn 0.8343 0.0609 -0.5479
vn -0.4232 0.2697 0.8650
vn -0.9930 -0.0166 0.1171
vn -0.8921 0.0629 0.4475
vn -0.9979 -0.0091 0.0636
vn -0.1859 -0.0031 -0.9826
vn -0.6252 -0.0274 -0.7800
vn -0.9985 -0.0540 -0.0000
vn -0.6252 -0.0274 0.7800
vn -0.1859 -0.0031 0.9826
vn 0.1859 -0.0031 0.9826
vn 0.6252 -0.0274 0.7800
vn 0.9985 -0.0540 -0.0000
vn 0.6252 -0.0274 -0.7800
vn 0.1859 -0.0031 -0.9826
vn -0.9455 -0.3255 -0.0000
vn -0.5655 -0.8247 -0.0000
vn 0.5655 -0.8247 -0.0000
vn 0.9455 -0.3255 -0.0000
vn 0.9455 0.3255 -0.0000
vn 0.5655 0.8247 -0.0000
vn -0.5655 0.8247 -0.0000
vn -0.9455 0.3255 -0.0000
vn -0.0000 -0.0000 1.0000
vn -0.0000 -0.0000 -1.0000
vn -0.8853 -0.0000 -0.4649
vn 1.0000 -0.0000 -0.0007
vn 0.9785 -0.0124 -0.2058
vn 0.0308 -0.0400 -0.9987
vn -0.9758 -0.0000 -0.2186
vn -0.2050 -0.0000 -0.9788
vn -0.9462 -0.0000 0.3236
vn 0.8853 -0.0000 -0.4649
vn 0.9544 0.0060 0.2985
vn -1.0000 -0.0000 -0.0007
vn -0.9511 -0.0000 -0.3090
vn -0.5878 -0.0000 -0.8090
vn 0.5878 -0.0000 -0.8090
vn 0.9511 -0.0000 -0.3090
vn 0.9511 -0.0000 0.3090
vn 0.5878 -0.0000 0.8090
vn -0.5878 -0.0000 0.8090
vn -0.9511 -0.0000 0.3090
vt 1.000000 0.500000
vt 1.000000 1.000000
vt 0.900000 1.000000
vt 0.900000 0.500000
vt 0.800000 1.000000
vt 0.800000 0.500000
vt 0.700000 1.000000
vt 0.700000 0.500000
vt 0.600000 1.000000
vt 0.600000 0.500000
vt 0.500000 1.000000
vt 0.500000 0.500000
vt 0.400000 1.000000
vt 0.400000 0.500000
vt 0.300000 1.000000
vt 0.300000 0.500000
vt 0.200000 1.000000
vt 0.200000 0.500000
vt 0.100000 1.000000
vt 0.100000 0.500000
vt -0.000000 1.000000
vt -0.000000 0.500000
vt 0.750000 0.337626
vt 0.750000 0.490000
vt 0.891068 0.444164
vt 0.801506 0.320891
vt 0.978254 0.324164
vt 0.833338 0.277078
vt 0.978254 0.175836
vt 0.833338 0.222922
vt 0.891068 0.055836
vt 0.801506 0.179109
vt 0.750000 0.010000
vt 0.750000 0.162374
vt 0.608932 0.055836
vt 0.698494 0.179109
vt 0.521746 0.175836
vt 0.666662 0.222922
vt 0.521746 0.324164
vt 0.666662 0.277078
vt 0.608932 0.444164
vt 0.698494 0.320891
vt 0.315060 0.339548
vt 0.391068 0.444164
vt 0.250000 0.490000
vt 0.355269 0.284204
vt 0.478254 0.324164
vt 0.355269 0.215796
vt 0.478254 0.175836
vt 0.315060 0.160452
vt 0.391068 0.055836
vt 0.250000 0.139313
vt 0.250000 0.010000
vt 0.184940 0.160452
vt 0.108932 0.055836
vt 0.144731 0.215796
vt 0.021746 0.175836
vt 0.144731 0.284204
vt 0.021746 0.324164
vt 0.184940 0.339548
vt 0.108932 0.444164
vt 0.250000 0.360687
vt 0.052050 0.255519
vt 0.052130 0.001235
vt 0.061775 0.001261
vt 0.061784 0.255523
vt 0.072171 0.001134
vt 0.072273 0.255504
vt 0.082771 0.000878
vt 0.082942 0.255461
vt 0.354127 0.003142
vt 0.352580 0.040860
vt 0.342678 0.040570
vt 0.344031 0.002134
vt 0.092660 0.255412
vt 0.092459 0.000595
vt 0.102920 0.000314
vt 0.103123 0.255362
vt 0.113584 0.000133
vt 0.113766 0.255328
vt 0.365153 0.004052
vt 0.363551 0.041181
vt 0.000101 0.255314
vt 0.000342 0.000101
vt 0.010771 0.000233
vt 0.010536 0.255339
vt 0.021426 0.000493
vt 0.021184 0.255387
vt 0.031121 0.000778
vt 0.030899 0.255438
vt 0.333414 0.220450
vt 0.333361 0.299000
vt 0.323972 0.299039
vt 0.323206 0.220493
vt 0.052075 0.605482
vt 0.061781 0.605483
vt 0.306056 0.447905
vt 0.304119 0.511226
vt 0.293868 0.510910
vt 0.296137 0.447480
vt 0.072235 0.605467
vt 0.082867 0.605434
vt 0.092557 0.605398
vt 0.103000 0.605363
vt 0.123449 0.255320
vt 0.123341 0.605340
vt 0.113637 0.605341
vt 0.321860 0.000339
vt 0.321560 0.040183
vt 0.311972 0.040182
vt 0.311635 0.000101
vt 0.010670 0.605361
vt 0.021302 0.605391
vt 0.343544 0.220514
vt 0.342809 0.299141
vt 0.030992 0.605426
vt 0.041376 0.255488
vt 0.041436 0.605460
vt 0.031148 0.999363
vt 0.041551 0.999143
vt 0.307686 0.405746
vt 0.298152 0.404991
vt 0.000217 0.605348
vt 0.010846 0.999794
vt 0.021475 0.999588
vt 0.205571 0.000520
vt 0.205566 0.977797
vt 0.194928 0.977706
vt 0.194938 0.000180
vt 0.052130 0.999004
vt 0.061779 0.998986
vt 0.072172 0.999086
vt 0.082757 0.999289
vt 0.092425 0.999514
vt 0.102862 0.999735
vt 0.273339 0.221817
vt 0.275742 0.301146
vt 0.264200 0.301588
vt 0.262499 0.221997
vt 0.376049 0.004600
vt 0.374390 0.041488
vt 0.113505 0.999878
vt 0.123221 0.999899
vt 0.000385 0.999899
vt 0.257544 0.004968
vt 0.259971 0.042154
vt 0.250001 0.042604
vt 0.247575 0.005901
vt 0.185227 0.977706
vt 0.185238 0.000101
vt 0.174788 0.000282
vt 0.174776 0.977797
vt 0.164139 0.977958
vt 0.164158 0.000700
vt 0.341289 0.329145
vt 0.340050 0.353660
vt 0.331995 0.353589
vt 0.332653 0.328758
vt 0.154469 0.001185
vt 0.154440 0.978127
vt 0.143989 0.978284
vt 0.144029 0.001681
vt 0.324375 0.353615
vt 0.324248 0.328736
vt 0.133351 0.978375
vt 0.133396 0.002021
vt 0.342275 0.406035
vt 0.342956 0.448334
vt 0.333245 0.448427
vt 0.333422 0.406395
vt 0.289440 0.001199
vt 0.291135 0.040698
vt 0.281435 0.041126
vt 0.279330 0.002298
vt 0.236353 0.978285
vt 0.236330 0.001919
vt 0.246780 0.002101
vt 0.246804 0.978375
vt 0.225715 0.978124
vt 0.225700 0.001501
vt 0.316618 0.406285
vt 0.315284 0.448220
vt 0.374039 0.129139
vt 0.363382 0.129091
vt 0.300619 0.000402
vt 0.301669 0.040333
vt 0.282625 0.129800
vt 0.283864 0.221529
vt 0.272212 0.129927
vt 0.265004 0.332972
vt 0.265187 0.355835
vt 0.252886 0.355618
vt 0.253458 0.332942
vt 0.322368 0.129248
vt 0.312870 0.129365
vt 0.216017 0.977955
vt 0.216011 0.001017
vt 0.270858 0.041635
vt 0.268503 0.003659
vt 0.291468 0.605907
vt 0.281567 0.605677
vt 0.284301 0.510558
vt 0.352723 0.129070
vt 0.309638 0.377155
vt 0.300470 0.376729
vt 0.374372 0.220965
vt 0.373768 0.299954
vt 0.362599 0.299733
vt 0.363679 0.220830
vt 0.277267 0.403415
vt 0.275597 0.446552
vt 0.263856 0.446167
vt 0.264728 0.402920
vt 0.286575 0.447032
vt 0.273673 0.510162
vt 0.292199 0.129665
vt 0.343668 0.511463
vt 0.344135 0.606463
vt 0.333493 0.606447
vt 0.333491 0.511564
vt 0.332645 0.735588
vt 0.321471 0.735705
vt 0.322699 0.606382
vt 0.315441 0.299203
vt 0.313898 0.220637
vt 0.332147 0.040322
vt 0.332820 0.129145
vt 0.312870 0.606275
vt 0.311272 0.735639
vt 0.300282 0.735357
vt 0.302274 0.606119
vt 0.353062 0.220651
vt 0.351964 0.299385
vt 0.291341 0.355150
vt 0.290800 0.376208
vt 0.278962 0.375185
vt 0.278882 0.355567
vt 0.289139 0.734902
vt 0.279034 0.734417
vt 0.268182 0.733910
vt 0.270821 0.605410
vt 0.371195 0.355134
vt 0.372288 0.375083
vt 0.359687 0.375896
vt 0.358745 0.354690
vt 0.293462 0.221219
vt 0.376049 0.606406
vt 0.375647 0.734800
vt 0.364711 0.734881
vt 0.365061 0.606425
vt 0.353669 0.735096
vt 0.354075 0.606451
vt 0.323309 0.511545
vt 0.323763 0.448361
vt 0.314070 0.511427
vt 0.259793 0.605130
vt 0.262512 0.509798
vt 0.249580 0.604881
vt 0.252161 0.509558
vt 0.375559 0.511029
vt 0.364348 0.511123
vt 0.353369 0.511308
vt 0.333075 0.001089
vt 0.261460 0.130022
vt 0.251570 0.130111
vt 0.253566 0.301807
vt 0.343575 0.735347
vt 0.252910 0.446007
vt 0.349969 0.329827
vt 0.363663 0.447829
vt 0.352482 0.448127
vt 0.340315 0.377005
vt 0.332369 0.377367
vt 0.324635 0.406478
vt 0.041543 0.001057
vt 0.288619 0.404213
vt 0.316621 0.328883
vt 0.308102 0.329389
vt 0.306081 0.299555
vt 0.253047 0.402855
vt 0.373732 0.404058
vt 0.375194 0.447495
vt 0.361691 0.404792
vt 0.351051 0.405502
vt 0.302627 0.129506
vt 0.324719 0.377408
vt 0.317682 0.377381
vt 0.265414 0.374558
vt 0.252767 0.374565
vt 0.348793 0.376575
vt 0.257154 0.733498
vt 0.247005 0.733257
vt 0.317509 0.353641
vt 0.309731 0.353879
vt 0.300849 0.354432
vt 0.348180 0.354041
vt 0.298704 0.330280
vt 0.289164 0.331285
vt 0.277639 0.332322
vt 0.372578 0.331663
vt 0.360638 0.330823
vt 0.296158 0.300071
vt 0.286614 0.300589
vt 0.343101 0.129085
vt 0.123650 0.978374
vt 0.123696 0.002100
vt 0.303826 0.220890
vt 0.252481 0.222072
vt 0.123264 0.000102
vt 0.580337 1.000000
vt 0.663843 1.000000
vt 0.290657 0.500000
vt 0.609343 0.500000
vt 0.680848 0.500000
vt 0.633053 0.500000
vt 0.563996 0.500000
vt 0.488538 0.500000
vt 0.411462 0.500000
vt 0.336004 0.500000
vt 0.266947 0.500000
vt 0.219151 0.500000
vt 0.196048 1.000000
vt 0.703952 1.000000
vt 0.737092 1.000000
vt 0.493713 1.000000
vt 0.406287 1.000000
vt 0.319663 1.000000
vt 0.236157 1.000000
vt 0.162908 1.000000
vt 0.576612 1.000000
vt 0.651341 1.000000
vt 0.617015 1.000000
vt 0.555085 1.000000
vt 0.485649 1.000000
vt 0.414350 1.000000
vt 0.344915 1.000000
vt 0.282985 1.000000
vt 0.248659 1.000000
vt 0.323388 1.000000
vt 0.375000 0.198075
vt 0.625000 0.198075
vt 0.625000 0.250000
vt 0.375000 0.250000
vt 0.375000 0.416667
vt 0.625000 0.416667
vt 0.625000 0.500000
vt 0.375000 0.500000
vt 0.375000 0.603850
vt 0.625000 0.603850
vt 0.625000 0.750000
vt 0.375000 0.750000
vt 0.291667 0.603850
vt 0.291667 0.750000
vt 0.791667 0.603850
vt 0.875000 0.603850
vt 0.875000 0.750000
vt 0.791667 0.750000
vt 0.708333 0.603850
vt 0.708333 0.750000
vt 0.750000 0.603850
vt 0.750000 0.750000
vt 0.125000 0.603850
vt 0.208333 0.603850
vt 0.208333 0.750000
vt 0.125000 0.750000
vt 0.250000 0.603850
vt 0.250000 0.750000
vt 0.625000 0.333333
vt 0.375000 0.333333
vt 0.125000 0.551925
vt 0.208333 0.551925
vt 0.625000 0.551925
vt 0.708333 0.551925
vt 0.791667 0.551925
vt 0.875000 0.551925
vt 0.291667 0.551925
vt 0.375000 0.551925
vt 0.375000 0.000000
vt 0.625000 0.000000
vt 0.625000 0.146150
vt 0.375000 0.146150
vt 0.708333 0.500000
vt 0.291667 0.500000
vt 0.208333 0.500000
vt 0.791667 0.500000
vt 0.875000 0.500000
vt 0.125000 0.500000
vt 0.320776 0.347415
vt 0.364518 0.287209
vt 0.364518 0.212791
vt 0.320776 0.152585
vt 0.250000 0.129588
vt 0.179224 0.152585
vt 0.135482 0.212791
vt 0.135482 0.287209
vt 0.179224 0.347415
vt 0.250000 0.370412
s 0
f 17/15/8 18/16/8 20/17/8 19/18/8
f 19/18/9 20/17/9 22/19/9 21/20/9
f 21/20/10 22/19/10 24/21/10 23/22/10
f 23/22/11 24/21/11 26/23/11 25/24/11
f 25/24/12 26/23/12 28/25/12 27/26/12
f 27/26/13 28/25/13 30/27/13 29/28/13
f 29/28/14 30/27/14 32/29/14 31/30/14
f 31/30/15 32/29/15 34/31/15 33/32/15
f 33/32/16 34/31/16 36/33/16 35/34/16
f 35/34/17 36/33/17 18/35/17 17/36/17
f 39/15/18 50/16/18 49/17/18 40/18/18
f 40/18/19 49/17/19 51/19/19 41/20/19
f 41/20/10 51/19/10 52/21/10 42/22/10
f 42/22/20 52/21/20 53/23/20 43/24/20
f 43/24/21 53/23/21 54/25/21 44/26/21
f 44/26/22 54/25/22 55/27/22 45/28/22
f 45/28/23 55/27/23 56/29/23 46/30/23
f 46/30/15 56/29/15 57/31/15 47/32/15
f 47/32/24 57/31/24 58/33/24 48/34/24
f 48/34/25 58/33/25 50/35/25 39/36/25
f 37/37/26 39/38/26 40/39/26
f 37/40/26 40/39/26 41/41/26
f 37/42/26 41/41/26 42/43/26
f 37/44/26 42/43/26 43/45/26
f 37/46/26 43/45/26 44/47/26
f 37/48/26 44/47/26 45/49/26
f 37/50/26 45/49/26 46/51/26
f 37/52/26 46/51/26 47/53/26
f 37/54/26 47/53/26 48/55/26
f 37/56/26 48/55/26 39/38/26
f 38/57/27 49/58/27 50/59/27
f 38/60/27 51/61/27 49/58/27
f 38/62/27 52/63/27 51/61/27
f 38/64/27 53/65/27 52/63/27
f 38/66/27 54/67/27 53/65/27
f 38/68/27 55/69/27 54/67/27
f 38/70/27 56/71/27 55/69/27
f 38/72/27 57/73/27 56/71/27
f 38/74/27 58/75/27 57/73/27
f 38/76/27 50/59/27 58/75/27
f 73/77/28 61/78/28 62/79/28 74/80/28
f 74/80/29 62/79/29 63/81/29 75/82/29
f 75/82/30 63/81/30 64/83/30 76/84/30
f 262/85/31 250/86/31 239/87/31 251/88/31
f 77/89/32 65/90/32 66/91/32 78/92/32
f 78/92/33 66/91/33 67/93/33 79/94/33
f 261/95/34 249/96/34 250/86/34 262/85/34
f 80/97/35 68/98/35 69/99/35 81/100/35
f 81/100/36 69/99/36 70/101/36 82/102/36
f 82/102/37 70/101/37 59/103/37 71/104/37
f 216/105/38 204/106/38 205/107/38 217/108/38
f 85/109/39 73/77/39 74/80/39 86/110/39
f 147/111/40 135/112/40 136/113/40 148/114/40
f 86/110/41 74/80/41 75/82/41 87/115/41
f 87/115/42 75/82/42 76/84/42 88/116/42
f 88/116/43 76/84/43 77/89/43 89/117/43
f 89/117/44 77/89/44 78/92/44 90/118/44
f 79/94/45 80/119/45 92/120/45 91/121/45
f 253/122/46 241/123/46 242/124/46 254/125/46
f 93/126/47 81/100/47 82/102/47 94/127/47
f 215/128/48 203/129/48 204/106/48 216/105/48
f 83/130/49 71/104/49 72/131/49 84/132/49
f 90/118/50 78/92/50 79/94/50 91/121/50
f 95/133/51 83/130/51 84/132/51 96/134/51
f 159/135/52 147/111/52 148/114/52 160/136/52
f 92/137/53 80/97/53 81/100/53 93/126/53
f 105/138/54 93/126/54 94/127/54 106/139/54
f 108/140/55 96/141/55 97/142/55 109/143/55
f 97/144/56 85/109/56 86/110/56 98/145/56
f 98/145/57 86/110/57 87/115/57 99/146/57
f 99/146/58 87/115/58 88/116/58 100/147/58
f 100/147/59 88/116/59 89/117/59 101/148/59
f 101/148/60 89/117/60 90/118/60 102/149/60
f 222/150/61 210/151/61 211/152/61 223/153/61
f 260/154/62 248/155/62 249/96/62 261/95/62
f 103/156/63 91/121/63 92/120/63 104/157/63
f 104/158/64 92/137/64 93/126/64 105/138/64
f 259/159/65 247/160/65 248/161/65 260/162/65
f 106/139/66 94/127/66 83/130/66 95/133/66
f 109/143/67 97/142/67 98/163/67 110/164/67
f 111/165/68 99/166/68 100/167/68 112/168/68
f 191/169/69 179/170/69 180/171/69 192/172/69
f 113/173/70 101/174/70 102/175/70 114/176/70
f 192/172/71 180/171/71 181/177/71 193/178/71
f 114/176/72 102/175/72 103/179/72 115/180/72
f 155/181/73 143/182/73 144/183/73 156/184/73
f 256/185/74 244/186/74 245/187/74 257/188/74
f 105/189/75 117/190/75 116/191/75 104/192/75
f 117/190/76 105/189/76 106/193/76 118/194/76
f 158/195/77 146/196/77 147/111/77 159/135/77
f 248/155/78 236/197/78 237/198/78 249/96/78
f 110/164/79 98/163/79 99/166/79 111/165/79
f 255/199/80 243/200/80 244/186/80 256/185/80
f 233/201/81 221/202/81 222/150/81 234/203/81
f 199/204/82 187/205/82 188/206/82 200/207/82
f 229/208/83 230/209/83 242/124/83 241/123/83
f 118/194/84 106/193/84 95/210/84 107/211/84
f 257/188/85 245/187/85 246/212/85 258/213/85
f 136/113/86 124/214/86 125/215/86 137/216/86
f 249/96/87 237/198/87 238/217/87 250/86/87
f 258/213/88 246/212/88 247/160/88 259/159/88
f 171/218/89 159/135/89 160/136/89 172/219/89
f 224/220/90 212/221/90 213/222/90 225/223/90
f 112/168/91 100/167/91 101/174/91 113/173/91
f 162/224/92 150/225/92 151/226/92 163/227/92
f 254/125/93 242/124/93 243/200/93 255/199/93
f 236/197/94 224/220/94 225/223/94 237/198/94
f 149/228/95 137/216/95 138/229/95 150/225/95
f 232/230/96 233/201/96 245/187/96 244/186/96
f 131/231/97 119/232/97 120/233/97 132/234/97
f 120/233/98 108/235/98 109/236/98 121/237/98
f 217/108/99 205/107/99 206/238/99 218/239/99
f 240/240/100 228/241/100 229/208/100 241/123/100
f 122/242/101 110/243/101 111/244/101 123/245/101
f 226/246/102 214/247/102 203/129/102 215/128/102
f 185/248/103 173/249/103 174/250/103 186/251/103
f 124/214/104 112/252/104 113/253/104 125/215/104
f 125/215/105 113/253/105 114/254/105 126/255/105
f 229/208/106 217/108/106 218/239/106 230/209/106
f 188/256/107 176/257/107 177/258/107 189/259/107
f 232/230/108 220/260/108 221/202/108 233/201/108
f 128/261/109 116/262/109 117/263/109 129/264/109
f 129/264/110 117/263/110 118/265/110 130/266/110
f 245/187/111 233/201/111 234/203/111 246/212/111
f 143/182/112 131/231/112 132/234/112 144/183/112
f 132/234/113 120/233/113 121/237/113 133/267/113
f 145/268/114 133/267/114 134/269/114 146/196/114
f 134/269/115 122/242/115 123/245/115 135/112/115
f 135/112/116 123/245/116 124/214/116 136/113/116
f 76/84/117 64/83/117 65/90/117 77/89/117
f 137/216/118 125/215/118 126/255/118 138/229/118
f 138/229/119 126/255/119 127/270/119 139/271/119
f 139/271/120 127/270/120 128/272/120 140/273/120
f 140/274/121 128/261/121 129/264/121 141/275/121
f 141/275/122 129/264/122 130/266/122 142/276/122
f 252/277/123 240/240/123 241/123/123 253/122/123
f 144/183/124 132/234/124 133/267/124 145/268/124
f 84/132/125 72/131/125 73/77/125 85/109/125
f 234/203/126 235/278/126 247/160/126 246/212/126
f 251/88/127 239/87/127 240/240/127 252/277/127
f 146/196/128 134/269/128 135/112/128 147/111/128
f 247/160/129 235/278/129 236/279/129 248/161/129
f 148/114/130 136/113/130 137/216/130 149/228/130
f 211/152/131 199/204/131 200/207/131 212/280/131
f 130/266/132 118/265/132 107/281/132 119/232/132
f 151/226/133 139/271/133 140/273/133 152/282/133
f 214/247/134 202/283/134 191/169/134 203/129/134
f 153/284/135 141/275/135 142/276/135 154/285/135
f 154/285/136 142/276/136 131/231/136 143/182/136
f 167/286/137 155/181/137 156/184/137 168/287/137
f 157/288/138 145/268/138 146/196/138 158/195/138
f 71/104/139 59/103/139 60/289/139 72/131/139
f 160/136/140 148/114/140 149/228/140 161/290/140
f 161/290/141 149/228/141 150/225/141 162/224/141
f 206/238/142 194/291/142 195/292/142 207/293/142
f 163/227/143 151/226/143 152/282/143 164/294/143
f 164/295/144 152/296/144 153/284/144 165/297/144
f 165/297/145 153/284/145 154/285/145 166/298/145
f 166/298/146 154/285/146 143/182/146 155/181/146
f 179/170/147 167/286/147 168/287/147 180/171/147
f 243/200/148 231/299/148 232/230/148 244/186/148
f 169/300/149 157/288/149 158/195/149 170/301/149
f 119/232/150 107/281/150 108/235/150 120/233/150
f 170/301/151 158/195/151 159/135/151 171/218/151
f 172/219/152 160/136/152 161/290/152 173/249/152
f 150/225/153 138/229/153 139/271/153 151/226/153
f 174/250/154 162/224/154 163/227/154 175/302/154
f 175/302/155 163/227/155 164/294/155 176/303/155
f 176/257/156 164/295/156 165/297/156 177/258/156
f 177/258/157 165/297/157 166/298/157 178/304/157
f 96/134/158 84/132/158 85/109/158 97/144/158
f 127/270/159 115/305/159 116/306/159 128/272/159
f 180/171/160 168/287/160 169/300/160 181/177/160
f 181/177/161 169/300/161 170/301/161 182/307/161
f 182/307/162 170/301/162 171/218/162 183/308/162
f 183/308/163 171/218/163 172/219/163 184/309/163
f 184/309/164 172/219/164 173/249/164 185/248/164
f 133/267/165 121/237/165 122/242/165 134/269/165
f 186/251/166 174/250/166 175/302/166 187/205/166
f 187/205/167 175/302/167 176/303/167 188/206/167
f 168/287/168 156/184/168 157/288/168 169/300/168
f 189/259/169 177/258/169 178/304/169 190/310/169
f 190/310/170 178/304/170 167/286/170 179/170/170
f 193/178/171 181/177/171 182/307/171 194/291/171
f 195/292/172 183/308/172 184/309/172 196/311/172
f 196/311/173 184/309/173 185/248/173 197/312/173
f 197/312/174 185/248/174 186/251/174 198/313/174
f 198/313/175 186/251/175 187/205/175 199/204/175
f 200/314/176 188/256/176 189/259/176 201/315/176
f 201/315/177 189/259/177 190/310/177 202/283/177
f 202/283/178 190/310/178 179/170/178 191/169/178
f 204/106/179 192/172/179 193/178/179 205/107/179
f 205/107/180 193/178/180 194/291/180 206/238/180
f 207/293/181 195/292/181 196/311/181 208/316/181
f 208/316/182 196/311/182 197/312/182 209/317/182
f 238/217/183 226/246/183 215/128/183 227/318/183
f 210/151/184 198/313/184 199/204/184 211/152/184
f 212/221/185 200/314/185 201/315/185 213/222/185
f 213/222/186 201/315/186 202/283/186 214/247/186
f 115/180/187 103/179/187 104/319/187 116/320/187
f 218/239/188 206/238/188 207/293/188 219/321/188
f 219/321/189 207/293/189 208/316/189 220/260/189
f 220/260/190 208/316/190 209/317/190 221/202/190
f 221/202/191 209/317/191 210/151/191 222/150/191
f 209/317/192 197/312/192 198/313/192 210/151/192
f 223/153/193 211/152/193 212/280/193 224/322/193
f 213/222/194 214/247/194 226/246/194 225/223/194
f 142/276/195 130/266/195 119/232/195 131/231/195
f 216/105/196 217/108/196 229/208/196 228/241/196
f 194/291/197 182/307/197 183/308/197 195/292/197
f 121/237/198 109/236/198 110/243/198 122/242/198
f 156/184/199 144/183/199 145/268/199 157/288/199
f 230/209/200 218/239/200 219/321/200 231/299/200
f 231/299/201 219/321/201 220/260/201 232/230/201
f 227/318/202 228/241/202 240/240/202 239/87/202
f 234/203/203 222/150/203 223/153/203 235/278/203
f 235/278/204 223/153/204 224/322/204 236/279/204
f 242/124/205 230/209/205 231/299/205 243/200/205
f 237/198/206 225/223/206 226/246/206 238/217/206
f 96/141/207 108/140/207 107/211/207 95/210/207
f 227/318/208 215/128/208 216/105/208 228/241/208
f 203/129/209 191/169/209 192/172/209 204/106/209
f 79/94/210 67/93/210 68/323/210 80/119/210
f 102/149/211 90/118/211 91/121/211 103/156/211
f 72/131/212 60/289/212 61/78/212 73/77/212
f 173/249/213 161/290/213 162/224/213 174/250/213
f 126/255/214 114/254/214 115/305/214 127/270/214
f 123/245/215 111/244/215 112/252/215 124/214/215
f 152/296/216 140/274/216 141/275/216 153/284/216
f 178/304/217 166/298/217 155/181/217 167/286/217
f 250/86/218 238/217/218 227/318/218 239/87/218
f 94/127/219 82/102/219 71/104/219 83/130/219
f 264/15/220 275/16/220 274/17/220 265/18/220
f 265/18/221 274/17/221 276/19/221 266/20/221
f 266/20/222 276/19/222 277/21/222 267/22/222
f 267/22/223 277/21/223 278/23/223 268/24/223
f 268/24/224 278/23/224 279/25/224 269/26/224
f 269/26/225 279/25/225 280/27/225 270/28/225
f 270/28/226 280/27/226 281/29/226 271/30/226
f 271/30/227 281/29/227 282/31/227 272/32/227
f 272/32/228 282/31/228 283/33/228 273/34/228
f 273/34/229 283/33/229 275/35/229 264/36/229
f 263/57/10 274/58/10 275/59/10
f 263/60/10 276/61/10 274/58/10
f 263/62/10 277/63/10 276/61/10
f 263/64/10 278/65/10 277/63/10
f 263/66/10 279/67/10 278/65/10
f 263/68/10 280/69/10 279/67/10
f 263/70/10 281/71/10 280/69/10
f 263/72/10 282/73/10 281/71/10
f 263/74/10 283/75/10 282/73/10
f 263/76/10 275/59/10 283/75/10
f 295/15/230 306/16/230 305/17/230 296/18/230
f 296/18/231 305/17/231 307/19/231 297/20/231
f 297/20/10 307/19/10 308/21/10 298/22/10
f 298/22/232 308/21/232 309/23/232 299/24/232
f 299/24/233 309/23/233 310/25/233 300/26/233
f 300/26/234 310/25/234 311/27/234 301/28/234
f 301/28/235 311/27/235 312/29/235 302/30/235
f 302/30/15 312/29/15 313/31/15 303/32/15
f 303/32/236 313/31/236 314/33/236 304/34/236
f 304/34/237 314/33/237 306/35/237 295/36/237
f 289/324/232 288/325/232 319/325/232 320/324/232
f 284/326/238 295/36/238 296/18/238
f 284/327/238 296/18/238 297/20/238
f 284/328/238 297/20/238 298/22/238
f 284/329/238 298/22/238 299/24/238
f 284/330/238 299/24/238 300/26/238
f 284/331/238 300/26/238 301/28/238
f 284/332/238 301/28/238 302/30/238
f 284/333/238 302/30/238 303/32/238
f 284/334/238 303/32/238 304/34/238
f 284/335/238 304/34/238 295/36/238
f 286/336/239 285/337/239 305/17/239 306/35/239
f 285/337/239 287/338/239 307/19/239 305/17/239
f 287/338/239 288/325/239 308/21/239 307/19/239
f 288/325/239 289/324/239 309/23/239 308/21/239
f 289/324/239 290/339/239 310/25/239 309/23/239
f 290/339/239 291/340/239 311/27/239 310/25/239
f 291/340/239 292/341/239 312/29/239 311/27/239
f 292/341/239 293/342/239 313/31/239 312/29/239
f 293/342/239 294/343/239 314/33/239 313/31/239
f 294/343/239 286/336/239 306/35/239 314/33/239
f 285/337/230 286/336/230 317/336/230 316/337/230
f 293/342/15 292/341/15 323/341/15 324/342/15
f 290/339/233 289/324/233 320/324/233 321/339/233
f 287/338/231 285/337/231 316/337/231 318/338/231
f 294/343/236 293/342/236 324/342/236 325/343/236
f 291/340/234 290/339/234 321/339/234 322/340/234
f 288/325/10 287/338/10 318/338/10 319/325/10
f 286/336/237 294/343/237 325/343/237 317/336/237
f 292/341/235 291/340/235 322/340/235 323/341/235
f 315/344/239 316/337/239 317/336/239
f 315/345/239 318/338/239 316/337/239
f 315/346/239 319/325/239 318/338/239
f 315/347/239 320/324/239 319/325/239
f 315/348/239 321/339/239 320/324/239
f 315/349/239 322/340/239 321/339/239
f 315/350/239 323/341/239 322/340/239
f 315/351/239 324/342/239 323/341/239
f 315/352/239 325/343/239 324/342/239
f 315/353/239 317/336/239 325/343/239
f 359/354/240 358/355/240 329/356/240 328/357/240
f 334/358/239 337/359/239 333/360/239 332/361/239
f 344/362/27 345/363/27 331/364/27 330/365/27
f 349/366/10 344/362/10 330/365/10 339/367/10
f 347/368/15 343/369/15 327/370/15 341/371/15
f 345/363/15 346/372/15 340/373/15 331/364/15
f 353/374/15 347/368/15 341/371/15 351/375/15
f 342/376/10 348/377/10 338/378/10 326/379/10
f 352/380/10 349/366/10 339/367/10 350/381/10
f 328/357/239 329/356/239 336/382/239 335/383/239
f 359/384/10 361/385/10 348/377/10 342/376/10
f 355/386/15 356/387/15 346/372/15 345/363/15
f 360/388/15 358/389/15 343/369/15 347/368/15
f 357/390/10 354/391/10 344/362/10 349/366/10
f 354/391/241 355/386/241 345/363/241 344/362/241
f 326/392/26 327/393/26 343/394/26 342/395/26
f 361/385/242 360/388/242 347/368/242 348/377/242
f 352/380/243 348/377/243 347/368/243 353/374/243
f 356/387/244 357/390/244 349/366/244 346/372/244
f 349/366/245 352/380/245 353/374/245 346/372/245
f 348/377/10 352/380/10 350/381/10 338/378/10
f 346/372/15 353/374/15 351/375/15 340/373/15
f 337/396/246 334/397/246 357/390/246 356/387/246
f 332/361/247 333/360/247 355/386/247 354/391/247
f 334/397/10 332/361/10 354/391/10 357/390/10
f 333/360/15 337/396/15 356/387/15 355/386/15
f 335/398/248 336/399/248 360/388/248 361/385/248
f 336/399/15 329/400/15 358/389/15 360/388/15
f 328/401/10 335/398/10 361/385/10 359/384/10
f 342/395/249 343/394/249 358/355/249 359/354/249
f 362/15/8 374/16/8 373/17/8 364/18/8
f 364/18/9 373/17/9 375/19/9 365/20/9
f 365/20/10 375/19/10 376/21/10 366/22/10
f 366/22/11 376/21/11 377/23/11 367/24/11
f 367/24/12 377/23/12 378/25/12 368/26/12
f 368/26/13 378/25/13 379/27/13 369/28/13
f 369/28/14 379/27/14 380/29/14 370/30/14
f 370/30/15 380/29/15 381/31/15 371/32/15
f 371/32/16 381/31/16 382/33/16 372/34/16
f 372/34/17 382/33/17 374/35/17 362/36/17
f 363/402/239 373/58/239 374/59/239
f 363/403/239 375/61/239 373/58/239
f 363/404/239 376/63/239 375/61/239
f 363/405/239 377/65/239 376/63/239
f 363/406/239 378/67/239 377/65/239
f 363/407/239 379/69/239 378/67/239
f 363/408/239 380/71/239 379/69/239
f 363/409/239 381/73/239 380/71/239
f 363/410/239 382/75/239 381/73/239
f 363/411/239 374/59/239 382/75/239
f 383/15/8 384/16/8 386/17/8 385/18/8
f 385/18/9 386/17/9 388/19/9 387/20/9
f 387/20/10 388/19/10 390/21/10 389/22/10
f 389/22/11 390/21/11 392/23/11 391/24/11
f 391/24/12 392/23/12 394/25/12 393/26/12
f 393/26/13 394/25/13 396/27/13 395/28/13
f 395/28/14 396/27/14 398/29/14 397/30/14
f 397/30/15 398/29/15 400/31/15 399/32/15
f 399/32/16 400/31/16 402/33/16 401/34/16
f 401/34/17 402/33/17 384/35/17 383/36/17
f 403/15/8 415/16/8 414/17/8 405/18/8
f 405/18/9 414/17/9 416/19/9 406/20/9
f 406/20/10 416/19/10 417/21/10 407/22/10
f 407/22/11 417/21/11 418/23/11 408/24/11
f 408/24/12 418/23/12 419/25/12 409/26/12
f 409/26/13 419/25/13 420/27/13 410/28/13
f 410/28/14 420/27/14 421/29/14 411/30/14
f 411/30/15 421/29/15 422/31/15 412/32/15
f 412/32/16 422/31/16 423/33/16 413/34/16
f 413/34/17 423/33/17 415/35/17 403/36/17
f 404/402/239 414/58/239 415/59/239
f 404/403/239 416/61/239 414/58/239
f 404/404/239 417/63/239 416/61/239
f 404/405/239 418/65/239 417/63/239
f 404/406/239 419/67/239 418/65/239
f 404/407/239 420/69/239 419/67/239
f 404/408/239 421/71/239 420/69/239
f 404/409/239 422/73/239 421/71/239
f 404/410/239 423/75/239 422/73/239
f 404/411/239 415/59/239 423/75/239
f 424/15/250 425/16/250 427/17/250 426/18/250
f 426/18/251 427/17/251 429/19/251 428/20/251
f 428/20/239 429/19/239 431/21/239 430/22/239
f 430/22/252 431/21/252 433/23/252 432/24/252
f 432/24/253 433/23/253 435/25/253 434/26/253
f 434/26/254 435/25/254 437/27/254 436/28/254
f 436/28/255 437/27/255 439/29/255 438/30/255
f 438/30/238 439/29/238 441/31/238 440/32/238
f 440/32/256 441/31/256 443/33/256 442/34/256
f 442/34/257 443/33/257 425/35/257 424/36/257
f 424/38/10 426/39/10 428/41/10 430/43/10 432/45/10 434/47/10 436/49/10 438/51/10 440/53/10 442/55/10
